<?xml version="1.0" standalone="no"?>
<!DOCTYPE svg PUBLIC "-//W3C//DTD SVG 20010904//EN"
 "http://www.w3.org/TR/2001/REC-SVG-20010904/DTD/svg10.dtd">
<svg version="1.0" xmlns="http://www.w3.org/2000/svg"
 width="460.000000pt" height="460.000000pt" viewBox="0 0 460.000000 460.000000"
 preserveAspectRatio="xMidYMid meet">
<metadata>
Created by potrace 1.11, written by Peter Selinger 2001-2013
</metadata>
<g transform="translate(0.000000,460.000000) scale(0.100000,-0.100000)"
fill="#000000" stroke="none">
<path d="M2030 4565 c-130 -22 -155 -27 -163 -32 -4 -2 -20 -6 -35 -9 -15 -2
-38 -8 -52 -13 -14 -5 -45 -14 -70 -21 -80 -22 -282 -90 -309 -105 -14 -7 -64
-32 -111 -55 -47 -24 -92 -48 -100 -55 -15 -12 -132 -79 -185 -105 -16 -8 -34
-21 -38 -27 -4 -7 -12 -13 -17 -13 -36 0 -338 -276 -447 -407 -44 -53 -123
-162 -123 -169 0 -3 -14 -25 -30 -50 -43 -61 -140 -251 -140 -272 0 -10 -5
-23 -11 -29 -6 -6 -12 -17 -13 -24 -2 -8 -8 -27 -14 -42 -7 -16 -12 -34 -12
-41 0 -6 -4 -16 -8 -21 -5 -6 -23 -57 -41 -115 -18 -58 -35 -112 -38 -120 -3
-8 -7 -28 -9 -45 -3 -16 -11 -62 -19 -101 -30 -148 -39 -245 -38 -439 0 -110
3 -216 7 -235 3 -19 11 -66 17 -105 19 -126 68 -319 99 -390 5 -11 12 -31 16
-45 7 -26 30 -78 91 -210 49 -106 63 -130 95 -171 15 -20 28 -40 28 -43 0 -4
19 -34 43 -68 23 -33 47 -68 52 -77 6 -9 33 -43 60 -76 28 -32 59 -69 70 -83
11 -13 43 -48 70 -76 28 -29 64 -68 80 -87 17 -19 46 -45 65 -58 19 -14 46
-36 60 -49 30 -30 164 -132 173 -132 3 0 25 -13 49 -29 65 -43 342 -180 375
-185 7 -1 16 -5 19 -9 4 -4 18 -7 30 -7 13 0 26 -4 29 -10 3 -5 17 -10 30 -10
13 0 27 -5 30 -10 3 -6 16 -10 28 -10 12 0 41 -7 64 -15 23 -8 82 -20 130 -26
49 -6 120 -16 158 -21 118 -16 267 -20 320 -9 28 5 108 11 178 13 71 2 131 6
134 10 2 5 22 8 43 8 40 0 81 8 195 36 66 17 171 47 195 57 8 3 33 11 55 17
22 6 58 18 80 27 22 8 49 19 60 23 65 25 306 148 335 172 19 15 38 28 42 28 8
0 90 59 123 88 11 10 42 36 70 58 76 60 195 187 300 320 17 20 38 46 47 55 9
10 25 33 34 51 9 18 28 47 40 64 13 17 24 35 24 41 0 6 9 22 20 35 24 31 151
278 143 278 -3 0 1 8 9 18 13 14 28 43 33 62 0 3 10 34 21 70 12 36 31 103 43
150 12 47 26 101 32 121 5 20 9 47 9 61 0 14 3 28 7 32 4 3 9 28 11 54 2 26 8
51 13 57 12 12 12 590 0 613 -5 9 -15 44 -22 77 -33 162 -80 321 -129 445 -12
30 -24 65 -27 78 -3 12 -9 25 -14 28 -5 3 -9 13 -9 23 0 10 -7 24 -15 31 -9 7
-14 15 -11 17 7 8 -70 149 -115 210 -24 32 -44 61 -45 66 -1 4 -2 11 -3 15 -1
10 -126 160 -185 222 -65 69 -236 230 -244 230 -4 0 -30 20 -57 45 -28 25 -64
52 -82 60 -17 8 -33 19 -35 23 -8 22 -287 183 -313 181 -3 0 -18 7 -33 15 -57
31 -140 65 -212 86 -41 13 -84 26 -95 31 -11 4 -33 10 -50 13 -16 2 -65 12
-108 21 -120 25 -142 26 -422 30 -178 2 -284 -1 -335 -10z m618 -247 c7 -7 12
-26 12 -44 0 -32 12 -77 36 -131 8 -17 14 -42 14 -55 1 -20 3 -19 15 10 12 27
19 32 49 32 48 0 76 -37 76 -101 0 -47 -16 -99 -31 -99 -9 0 1 39 12 46 11 7
11 85 0 102 -4 7 -7 -12 -5 -45 2 -53 2 -55 -6 -18 l-8 40 0 -40 c0 -63 -1
-65 -19 -59 -15 5 -15 4 -3 -5 13 -9 13 -10 0 -15 -39 -12 -42 -16 -10 -11 32
4 33 3 16 -10 -16 -12 -22 -12 -46 0 -30 16 -40 39 -40 103 0 23 -3 42 -7 42
-5 0 -16 13 -25 29 -9 18 -39 41 -70 57 -63 31 -98 61 -98 83 1 12 7 9 23 -10
26 -31 58 -49 86 -49 20 0 21 4 15 58 -4 31 -10 64 -15 73 -14 27 7 39 29 17z
m216 -32 c4 -24 13 -52 21 -62 13 -17 14 -15 15 29 0 35 4 47 15 47 12 0 14
-11 9 -62 -3 -35 -13 -87 -21 -116 -15 -50 -14 -178 3 -237 8 -30 -33 -80 -52
-64 -8 6 -14 16 -14 22 0 6 -9 20 -20 32 -19 20 -19 23 -4 36 14 11 18 11 30
-6 12 -16 14 -2 14 117 0 74 -4 148 -9 164 -17 53 -21 144 -6 144 7 0 15 -18
19 -44z m-519 -31 c43 -48 59 -99 40 -135 -28 -54 -79 -49 -122 12 -35 52 -37
113 -3 140 32 26 48 23 85 -17z m-537 -65 c34 -32 30 -99 -7 -139 -16 -17 -35
-31 -43 -32 -7 0 -21 -2 -30 -4 -25 -5 -41 21 -40 61 2 40 15 69 50 107 31 32
41 33 70 7z m110 -97 c0 -34 3 -81 7 -105 4 -24 3 -39 -1 -35 -5 5 -14 -11
-19 -34 l-11 -43 -37 71 c-46 90 -49 122 -7 75 l30 -32 1 67 c1 38 1 71 0 75
0 4 4 20 10 35 10 26 11 27 19 7 4 -11 8 -48 8 -81z m196 -24 c3 -57 2 -117
-3 -137 -6 -21 -20 -91 -31 -156 -17 -96 -20 -139 -14 -219 4 -54 10 -95 14
-90 14 16 68 159 80 213 7 30 15 89 19 130 3 42 10 74 16 73 6 -2 12 -38 15
-80 l5 -78 19 35 c11 19 22 64 25 100 3 36 11 65 16 65 26 0 11 -145 -21 -205
-7 -14 -24 -37 -39 -53 -28 -29 -75 -153 -105 -277 -20 -83 -49 -169 -61 -185
-4 -6 -4 -29 1 -50 24 -114 39 -243 20 -185 -7 22 -8 23 -9 4 -1 -12 5 -27 13
-33 11 -9 17 0 31 44 9 30 21 57 26 61 5 3 9 12 9 19 0 20 46 115 71 146 39
49 40 90 6 259 l-13 64 50 91 c78 142 84 158 105 252 19 85 18 121 -4 176 -5
11 -3 17 7 17 7 0 22 -19 32 -42 l19 -43 18 40 c9 22 18 46 18 53 1 6 5 12 11
12 16 0 -11 -113 -46 -188 -17 -36 -31 -132 -20 -132 4 0 27 16 51 35 28 24
56 61 79 108 57 112 67 128 76 122 10 -6 7 -15 -40 -107 -19 -37 -31 -71 -27
-75 4 -4 33 5 63 21 31 15 59 24 63 21 3 -4 -1 -10 -9 -15 -8 -5 -30 -20 -49
-34 -19 -14 -41 -26 -48 -26 -8 0 -35 -20 -61 -44 -26 -24 -70 -55 -97 -69
-28 -14 -56 -36 -62 -49 -29 -60 -43 -97 -43 -112 0 -8 -5 -26 -11 -39 -8 -19
-6 -42 11 -106 12 -45 20 -84 17 -88 -3 -3 -10 10 -16 28 -5 19 -9 25 -9 14 0
-11 3 -30 6 -42 7 -21 8 -21 62 16 85 56 130 95 130 109 0 7 -11 32 -24 55
-23 41 -40 133 -26 142 8 5 30 -62 30 -93 0 -47 17 -26 28 35 13 67 29 109 39
99 3 -3 0 -26 -6 -52 -7 -28 -9 -64 -5 -88 4 -23 7 -45 6 -49 -1 -5 14 4 33
20 36 29 47 56 60 145 9 71 25 69 25 -4 l0 -63 36 63 c19 34 40 62 45 62 28 0
-31 -129 -72 -158 -10 -7 -34 -37 -54 -66 -21 -32 -64 -75 -107 -107 -39 -29
-90 -73 -112 -98 -23 -25 -68 -74 -102 -110 -49 -54 -67 -84 -99 -164 l-39
-97 13 -88 c7 -48 15 -106 18 -129 3 -24 8 -43 12 -43 9 0 136 140 183 202 19
25 39 63 42 85 8 42 27 101 47 148 32 73 138 226 204 295 77 80 100 114 89
131 -3 6 -3 94 1 195 6 147 10 184 21 184 10 0 14 -15 14 -60 0 -35 7 -74 17
-95 l17 -36 21 39 c41 78 145 206 145 177 0 -16 -176 -311 -191 -321 -13 -8
-11 -104 2 -104 6 0 37 14 68 30 50 27 61 40 110 123 51 87 135 182 153 171
12 -8 -19 -62 -46 -79 -13 -9 -40 -48 -60 -88 l-37 -72 23 -6 c13 -4 35 -7 51
-8 15 -1 27 -4 27 -7 0 -14 -37 -33 -64 -34 -31 0 -76 -25 -141 -75 -43 -34
-134 -79 -142 -71 -3 2 26 20 63 40 38 19 85 48 104 66 31 28 29 27 -25 -8
-33 -22 -79 -49 -101 -60 -57 -29 -146 -113 -200 -187 -57 -81 -57 -94 0 -18
60 79 134 159 140 152 3 -2 -28 -42 -68 -87 -70 -78 -110 -146 -151 -257 -11
-27 -24 -53 -29 -57 -22 -15 2 -16 29 -2 17 9 82 43 145 75 196 102 204 113
250 355 8 41 18 64 32 73 11 7 21 11 23 9 2 -2 -3 -28 -11 -58 -8 -30 -19 -82
-24 -115 -5 -33 -14 -79 -19 -102 -7 -35 -6 -43 6 -43 28 0 138 32 188 54 28
13 75 31 105 40 57 18 102 57 130 113 27 51 89 131 120 153 46 33 87 95 95
143 11 63 50 135 110 201 60 66 83 69 41 6 -37 -56 -33 -60 14 -15 22 21 42
36 46 33 14 -15 -12 -52 -74 -104 -63 -54 -88 -81 -80 -89 1 -2 27 1 57 7 81
14 89 -5 15 -38 l-59 -26 28 -14 c36 -20 26 -34 -24 -32 -53 2 -69 -14 -43
-43 38 -44 73 -50 155 -29 88 23 99 24 99 7 0 -12 -30 -28 -77 -42 -13 -3 -23
-10 -23 -15 0 -9 96 -40 124 -40 9 0 16 -7 16 -16 0 -24 -112 -15 -167 14 -24
12 -61 31 -83 42 -41 21 -115 27 -125 10 -3 -5 -14 -10 -24 -10 -21 0 -54 -41
-95 -115 -16 -27 -33 -56 -38 -62 -8 -10 -1 -13 28 -13 22 0 56 -5 76 -10 32
-9 48 -6 127 25 73 28 104 35 162 35 52 0 70 -3 67 -12 -3 -7 -23 -14 -46 -16
-22 -2 -58 -12 -79 -22 -36 -18 -37 -19 -11 -20 42 0 138 -39 138 -56 0 -16
-21 -19 -36 -4 -16 16 -152 32 -174 20 -26 -14 -120 -13 -175 2 -35 10 -55 9
-97 -1 -72 -19 -167 -49 -203 -66 -93 -42 -130 -55 -176 -59 -36 -3 -65 -14
-93 -34 -23 -16 -79 -48 -126 -72 -89 -45 -90 -45 -185 -81 -33 -12 -72 -33
-87 -47 -16 -14 -28 -22 -28 -16 0 17 15 31 48 48 17 9 32 19 32 22 0 3 -3 4
-7 2 -50 -24 -66 -37 -84 -67 -14 -24 -16 -31 -5 -22 45 37 -15 -63 -85 -143
-40 -45 -80 -67 -43 -23 10 12 -1 4 -24 -18 -23 -21 -42 -44 -42 -50 0 -5 11
4 25 20 29 35 31 31 8 -15 -25 -51 -42 -146 -43 -235 0 -140 30 -212 135 -324
82 -88 165 -210 165 -242 0 -32 21 -17 39 28 21 53 36 70 96 109 62 40 120
100 134 137 25 65 12 145 -40 252 -16 33 -29 68 -29 78 0 9 -25 36 -57 60 -66
48 -143 124 -143 141 0 6 -13 38 -29 71 -52 105 -5 93 50 -13 19 -36 51 -79
72 -96 l38 -30 33 18 c38 20 56 52 56 99 1 43 35 186 48 199 6 6 16 7 22 3 16
-10 8 -125 -15 -212 -14 -57 -15 -68 -1 -120 14 -53 31 -130 58 -258 6 -27 14
-63 19 -79 5 -16 9 -49 9 -73 l0 -45 43 34 c75 59 248 239 263 274 26 63 28
170 5 254 -12 41 -21 97 -21 125 0 57 32 135 54 135 20 0 29 -51 17 -98 -13
-48 -5 -119 24 -192 20 -50 24 -55 51 -53 30 2 60 31 172 161 82 96 118 80 68
-30 -27 -62 -50 -88 -130 -152 -59 -48 -166 -165 -166 -183 0 -5 -13 -24 -30
-43 -16 -19 -30 -39 -30 -45 -2 -18 -114 -143 -161 -178 -48 -36 -184 -128
-241 -162 -35 -21 -212 -246 -221 -280 -3 -11 -12 -47 -21 -80 -8 -33 -15 -78
-16 -100 0 -22 -12 -106 -27 -185 -19 -105 -27 -184 -28 -285 -3 -149 1 -184
35 -340 30 -142 15 -223 -59 -307 -21 -24 -31 -46 -31 -67 0 -36 15 -45 96
-56 27 -4 55 -12 62 -18 17 -14 80 -4 131 22 24 11 49 17 55 14 6 -4 40 -12
75 -18 60 -9 64 -12 65 -37 2 -34 -26 -43 -87 -27 -37 11 -53 9 -116 -10 -93
-28 -192 -36 -251 -21 -25 7 -74 16 -110 20 -36 4 -80 11 -97 15 -22 5 -38 3
-48 -5 -8 -7 -15 -8 -15 -3 0 4 -46 17 -102 27 -57 10 -119 22 -138 27 -19 5
-46 9 -60 9 -39 0 -101 20 -95 31 4 5 2 9 -4 9 -6 0 -8 6 -5 13 3 9 -6 17 -26
23 -17 5 -30 13 -28 19 2 5 8 8 13 7 19 -7 110 -23 160 -28 28 -3 64 -12 81
-20 28 -12 183 -35 254 -38 14 0 28 -4 31 -9 10 -13 69 68 69 95 0 13 -6 32
-14 43 -7 11 -19 44 -25 74 -12 59 -6 93 33 183 21 48 24 73 29 258 4 113 11
241 16 285 6 44 18 141 27 215 21 168 24 394 7 411 -7 7 -13 19 -13 27 0 8
-16 37 -35 63 -40 57 -44 70 -12 43 l22 -19 -19 22 c-10 13 -22 20 -26 18 -4
-3 -35 26 -69 64 -42 48 -73 73 -99 81 -83 27 -310 149 -446 239 -55 36 -119
77 -142 89 -90 50 -214 202 -214 262 0 30 13 24 37 -19 12 -22 36 -50 53 -63
17 -12 48 -38 69 -55 46 -40 54 -41 41 -7 -6 14 -10 62 -10 107 1 98 -23 250
-43 280 -9 12 -42 52 -75 88 -71 80 -123 163 -150 242 -23 65 -99 157 -187
228 -59 47 -80 56 -135 58 -20 1 -60 16 -95 36 -33 20 -77 43 -98 52 -37 16
-49 33 -23 33 7 0 47 -16 89 -35 60 -28 88 -35 135 -35 45 0 67 -5 93 -23 59
-40 103 -64 128 -72 22 -7 23 -6 16 34 -5 32 -4 41 8 41 25 0 38 -26 32 -66
-4 -25 0 -48 9 -64 32 -56 116 -233 116 -245 0 -17 18 -50 60 -108 l34 -47 38
36 c45 45 117 184 125 242 5 36 2 47 -18 68 -27 30 -116 93 -105 76 12 -19 -8
-14 -83 23 -39 19 -73 35 -75 35 -3 0 -33 13 -68 29 -49 23 -80 31 -143 33
-113 5 -165 35 -253 142 -39 48 -18 52 32 6 26 -24 45 -48 42 -55 -6 -16 91
-58 149 -63 l50 -5 -24 27 c-14 15 -49 38 -78 52 -29 15 -56 31 -59 36 -12 19
6 20 33 1 15 -10 42 -25 58 -33 17 -8 43 -23 60 -35 29 -19 135 -58 135 -48 0
20 -40 70 -95 118 -36 32 -65 64 -65 71 0 20 3 18 44 -21 21 -19 42 -35 47
-35 17 0 8 43 -26 123 -11 26 17 22 35 -5 30 -48 40 -71 40 -99 0 -36 39 -115
73 -149 26 -26 106 -69 166 -88 l34 -11 -7 77 c-6 66 -13 87 -48 145 -22 37
-47 96 -55 129 -8 34 -21 74 -29 90 -8 16 -13 35 -11 41 3 7 20 -19 38 -58
l32 -70 13 78 c7 43 15 81 18 85 3 3 6 -45 6 -107 0 -110 1 -115 37 -188 l37
-74 23 63 c12 35 23 71 23 82 0 32 26 0 40 -50 23 -82 64 -69 74 24 16 138 24
110 22 -80 0 -108 2 -194 6 -192 4 3 20 28 36 57 35 61 63 185 55 245 -3 25
-2 42 4 42 13 0 26 -158 17 -194 -11 -46 3 -28 42 54 21 44 41 80 46 80 12 0
10 -13 -13 -66 -35 -84 -42 -98 -74 -144 -16 -25 -37 -58 -45 -75 -8 -16 -36
-61 -62 -98 -47 -65 -101 -177 -128 -262 -7 -22 -19 -49 -25 -60 -32 -51 -37
-93 -21 -173 31 -157 45 -249 52 -339 l7 -92 89 -68 c48 -37 105 -80 125 -95
20 -16 45 -28 57 -28 11 0 41 -7 66 -16 25 -9 54 -18 65 -20 11 -2 30 -9 42
-15 18 -10 26 -9 39 2 14 11 15 24 8 84 -4 38 -7 90 -7 115 1 25 2 90 4 145 2
117 -22 291 -50 343 -10 21 -23 48 -29 62 -6 14 -35 81 -65 150 -29 69 -59
152 -66 185 -7 33 -26 83 -42 111 -42 74 -39 106 6 64 l22 -21 7 53 c17 137
23 164 34 183 10 16 11 -2 7 -100 -10 -205 -9 -218 16 -302 13 -46 27 -83 31
-83 11 0 48 66 62 114 11 35 12 63 5 109 -16 116 -11 325 11 396 22 73 14 139
-20 176 -20 22 -52 120 -43 129 8 8 33 -13 33 -28 0 -6 14 -29 30 -50 l30 -40
0 60 c0 138 24 133 34 -7z m1103 5 c-5 -47 -11 -60 -44 -93 l-39 -37 22 55
c12 31 26 73 29 94 5 23 13 37 23 37 12 0 14 -10 9 -56z m61 -30 c-23 -34 -42
-43 -53 -25 -3 5 -1 13 5 16 6 4 23 25 38 48 24 38 27 40 30 19 2 -13 -7 -39
-20 -58z m-174 41 c23 -35 20 -72 -9 -122 -24 -41 -28 -43 -71 -43 -39 0 -46
3 -54 26 -34 88 86 213 134 139z m-1997 -47 c44 -31 65 -74 61 -122 -2 -33 -8
-41 -31 -49 -41 -13 -69 -2 -99 41 -73 105 -26 194 69 130z m507 -81 c4 -26
11 -47 15 -47 5 0 17 23 28 51 10 28 23 49 28 47 6 -2 9 -7 8 -13 -1 -5 -6
-28 -11 -50 -5 -22 -18 -60 -30 -84 -12 -25 -22 -51 -22 -58 0 -22 -19 -14
-24 10 -3 12 -7 54 -11 92 -3 39 -8 90 -11 115 -5 45 -5 45 9 15 8 -17 17 -52
21 -78z m1670 27 c35 -35 5 -115 -58 -153 -42 -26 -68 -26 -91 -1 -16 18 -17
25 -6 60 25 83 113 137 155 94z m-1261 -22 c43 -47 36 -114 -16 -158 -92 -77
-148 58 -62 150 28 30 55 33 78 8z m1097 -58 c-6 -14 -10 -36 -10 -49 0 -16
-17 -40 -50 -71 -28 -26 -56 -57 -63 -69 -6 -12 -23 -42 -36 -65 l-23 -43 -19
54 c-21 61 -23 85 -9 94 5 3 18 -12 27 -35 10 -22 20 -40 23 -40 3 0 17 26 32
58 21 45 124 192 135 192 1 0 -2 -12 -7 -26z m166 -242 c16 -10 34 -48 34 -70
0 -32 -84 -76 -146 -76 -50 0 -84 15 -84 37 0 5 8 3 18 -6 20 -19 97 -23 121
-8 10 6 1 8 -26 4 -53 -7 -93 3 -93 23 0 8 -4 13 -9 10 -16 -10 0 32 19 49 37
34 138 56 166 37z m-2331 -80 c-3 -3 -11 0 -18 7 -9 10 -8 11 6 5 10 -3 15 -9
12 -12z m455 -882 c0 -5 -2 -10 -4 -10 -3 0 -8 5 -11 10 -3 6 -1 10 4 10 6 0
11 -4 11 -10z m910 -421 c0 -5 -7 -9 -15 -9 -15 0 -20 12 -9 23 8 8 24 -1 24
-14z m-60 1 c0 -5 -4 -10 -10 -10 -5 0 -10 5 -10 10 0 6 5 10 10 10 6 0 10 -4
10 -10z m-1052 -398 c25 -14 64 -50 88 -81 72 -91 77 -182 13 -235 -34 -29
-39 -30 -92 -15 -52 14 -98 57 -148 140 -57 94 -65 164 -25 204 25 24 32 26
74 20 26 -4 66 -18 90 -33z m37 -462 c74 -32 105 -59 131 -114 39 -84 27 -135
-38 -160 -55 -23 -93 -20 -155 11 -86 42 -156 152 -137 216 16 56 31 67 93 67
37 0 77 -8 106 -20z m2680 -260 c3 -5 1 -10 -4 -10 -6 0 -11 5 -11 10 0 6 2
10 4 10 3 0 8 -4 11 -10z"/>
<path d="M2320 4255 c0 -4 8 -19 19 -33 27 -39 33 -66 21 -96 -5 -15 -6 -25
-1 -22 20 13 21 57 1 100 -18 40 -40 68 -40 51z"/>
<path d="M2320 4211 c0 -6 4 -13 10 -16 6 -3 7 1 4 9 -7 18 -14 21 -14 7z"/>
<path d="M1800 4128 c0 -44 -31 -85 -68 -91 l-27 -4 27 -2 c45 -2 108 93 79
122 -8 8 -11 2 -11 -25z"/>
<path d="M1780 4125 c0 -9 -7 -28 -16 -43 l-16 -27 21 25 c18 22 29 60 16 60
-3 0 -5 -7 -5 -15z"/>
<path d="M1902 4000 c0 -19 2 -27 5 -17 2 9 2 25 0 35 -3 9 -5 1 -5 -18z"/>
<path d="M2459 3776 c-12 -14 -44 -34 -73 -47 -48 -20 -75 -43 -76 -63 0 -5 9
3 20 17 11 14 33 28 50 32 26 6 125 84 107 85 -4 0 -17 -11 -28 -24z"/>
<path d="M1591 3733 c-1 -13 -10 -46 -21 -75 -12 -32 -20 -77 -20 -114 0 -58
2 -64 40 -103 22 -22 49 -41 59 -41 41 0 39 113 -4 205 -13 28 -30 73 -38 100
-9 29 -15 41 -16 28z"/>
<path d="M2297 3643 c-4 -3 -7 -13 -7 -22 1 -13 3 -13 11 2 11 19 8 33 -4 20z"/>
<path d="M2262 3540 c-14 -45 -16 -96 -4 -104 5 -3 6 9 4 26 -3 16 1 48 8 69
7 22 11 41 9 43 -3 3 -10 -13 -17 -34z"/>
<path d="M1794 3533 c-34 -55 -90 -139 -125 -188 -20 -27 -39 -63 -42 -80 -6
-30 -6 -30 9 4 8 18 32 56 53 85 21 28 46 65 55 81 9 17 30 51 46 78 16 26 27
47 25 47 -3 0 -12 -12 -21 -27z"/>
<path d="M2475 3394 l-40 -36 48 33 c26 18 47 34 47 36 0 10 -20 -2 -55 -33z"/>
<path d="M2272 3400 c0 -14 2 -19 5 -12 2 6 2 18 0 25 -3 6 -5 1 -5 -13z"/>
<path d="M2081 3354 c0 -11 3 -14 6 -6 3 7 2 16 -1 19 -3 4 -6 -2 -5 -13z"/>
<path d="M2376 3317 c-99 -104 -173 -187 -166 -187 4 0 36 32 71 71 35 39 83
91 107 115 23 24 39 44 36 44 -4 0 -25 -19 -48 -43z"/>
<path d="M2066 3315 c-3 -9 -6 -22 -5 -28 0 -7 5 -1 10 12 5 13 8 26 5 28 -2
2 -6 -3 -10 -12z"/>
<path d="M2039 3244 c-5 -15 -8 -29 -5 -31 2 -2 8 10 14 26 13 38 5 41 -9 5z"/>
<path d="M1567 3108 c-26 -66 -46 -122 -44 -124 2 -2 25 50 51 117 27 66 47
122 45 124 -3 2 -26 -51 -52 -117z"/>
<path d="M3220 3210 c-11 -8 -7 -9 15 -4 37 8 45 14 19 14 -10 0 -26 -5 -34
-10z"/>
<path d="M3178 3193 c7 -3 16 -2 19 1 4 3 -2 6 -13 5 -11 0 -14 -3 -6 -6z"/>
<path d="M3083 3164 c-18 -8 -33 -16 -33 -19 0 -4 79 24 89 32 11 8 -27 0 -56
-13z"/>
<path d="M2031 3154 c0 -11 3 -14 6 -6 3 7 2 16 -1 19 -3 4 -6 -2 -5 -13z"/>
<path d="M2492 3069 c-18 -39 -32 -79 -32 -88 1 -9 16 22 35 69 19 46 33 86
31 87 -2 2 -17 -29 -34 -68z"/>
<path d="M3000 3124 l-25 -15 25 7 c14 3 29 10 35 15 15 14 -7 10 -35 -7z"/>
<path d="M2043 3085 c0 -27 2 -38 4 -22 2 15 2 37 0 50 -2 12 -4 0 -4 -28z"/>
<path d="M2191 3104 c0 -11 3 -14 6 -6 3 7 2 16 -1 19 -3 4 -6 -2 -5 -13z"/>
<path d="M2830 3077 c-25 -18 -72 -46 -105 -64 -33 -18 -56 -33 -52 -33 12 0
83 38 145 78 38 25 73 39 107 43 l50 6 -50 1 c-41 0 -58 -6 -95 -31z"/>
<path d="M2173 3063 c-3 -10 -8 -22 -11 -27 -3 -5 0 -6 5 -3 11 7 25 47 17 47
-3 0 -7 -8 -11 -17z"/>
<path d="M2146 3005 c-9 -26 -7 -32 5 -12 6 10 9 21 6 23 -2 3 -7 -2 -11 -11z"/>
<path d="M2630 2971 c-14 -5 -34 -13 -45 -19 -11 -6 -35 -16 -53 -23 -18 -6
-31 -14 -29 -16 6 -5 139 45 151 57 11 11 11 11 -24 1z"/>
<path d="M2125 2950 c-4 -12 -5 -24 -2 -27 3 -2 8 5 12 17 4 12 5 24 2 27 -3
2 -8 -5 -12 -17z"/>
<path d="M1532 2910 c0 -14 2 -19 5 -12 2 6 2 18 0 25 -3 6 -5 1 -5 -13z"/>
<path d="M2112 2890 c0 -14 2 -19 5 -12 2 6 2 18 0 25 -3 6 -5 1 -5 -13z"/>
<path d="M2125 2811 c3 -30 9 -59 14 -64 6 -6 6 5 1 29 -5 22 -11 50 -14 64
-3 14 -3 1 -1 -29z"/>
<path d="M1553 2805 c0 -22 2 -30 4 -17 2 12 2 30 0 40 -3 9 -5 -1 -4 -23z"/>
<path d="M3192 2800 c0 -14 2 -19 5 -12 2 6 2 18 0 25 -3 6 -5 1 -5 -13z"/>
<path d="M2360 2780 c-6 -11 -8 -20 -6 -20 3 0 10 9 16 20 6 11 8 20 6 20 -3
0 -10 -9 -16 -20z"/>
<path d="M3183 2735 c0 -22 2 -30 4 -17 2 12 2 30 0 40 -3 9 -5 -1 -4 -23z"/>
<path d="M2762 2730 c0 -19 2 -27 5 -17 2 9 2 25 0 35 -3 9 -5 1 -5 -18z"/>
<path d="M2315 2720 c-16 -16 -26 -32 -24 -34 3 -3 17 10 32 29 34 43 30 45
-8 5z"/>
<path d="M1573 2690 c0 -25 2 -35 4 -22 2 12 2 32 0 45 -2 12 -4 2 -4 -23z"/>
<path d="M2146 2705 c8 -37 14 -45 14 -19 0 10 -5 26 -10 34 -8 11 -9 7 -4
-15z"/>
<path d="M2751 2674 c0 -11 3 -14 6 -6 3 7 2 16 -1 19 -3 4 -6 -2 -5 -13z"/>
<path d="M3192 2665 c0 -16 2 -22 5 -12 2 9 2 23 0 30 -3 6 -5 -1 -5 -18z"/>
<path d="M2742 2630 c0 -14 2 -19 5 -12 2 6 2 18 0 25 -3 6 -5 1 -5 -13z"/>
<path d="M1583 2605 c0 -22 2 -30 4 -17 2 12 2 30 0 40 -3 9 -5 -1 -4 -23z"/>
<path d="M3210 2586 c0 -8 4 -17 9 -20 5 -4 7 3 4 14 -6 23 -13 26 -13 6z"/>
<path d="M2731 2574 c0 -11 3 -14 6 -6 3 7 2 16 -1 19 -3 4 -6 -2 -5 -13z"/>
<path d="M2192 2550 c0 -14 2 -19 5 -12 2 6 2 18 0 25 -3 6 -5 1 -5 -13z"/>
<path d="M1592 2520 c0 -19 2 -27 5 -17 2 9 2 25 0 35 -3 9 -5 1 -5 -18z"/>
<path d="M2742 2515 c0 -11 3 -29 8 -40 11 -25 11 1 0 35 -6 20 -8 21 -8 5z"/>
<path d="M3271 2430 c-28 -33 -55 -71 -61 -83 -9 -19 -8 -19 7 3 10 13 40 50
66 82 27 32 46 58 43 58 -3 0 -28 -27 -55 -60z"/>
<path d="M2173 2430 c0 -30 2 -43 4 -27 2 15 2 39 0 55 -2 15 -4 2 -4 -28z"/>
<path d="M2762 2425 c0 -16 2 -22 5 -12 2 9 2 23 0 30 -3 6 -5 -1 -5 -18z"/>
<path d="M2782 2340 c0 -14 4 -36 8 -50 l8 -25 0 25 c0 14 -4 36 -8 50 l-8 25
0 -25z"/>
<path d="M2173 2285 c0 -22 2 -30 4 -17 2 12 2 30 0 40 -3 9 -5 -1 -4 -23z"/>
<path d="M3120 2214 c-19 -25 -56 -65 -82 -90 -26 -24 -44 -44 -39 -44 13 0
161 158 161 172 0 13 -3 10 -40 -38z"/>
<path d="M2812 2200 c0 -14 2 -19 5 -12 2 6 2 18 0 25 -3 6 -5 1 -5 -13z"/>
<path d="M2190 2194 c0 -12 29 -74 35 -74 5 0 -5 27 -22 60 -7 14 -13 20 -13
14z"/>
<path d="M2832 2105 c0 -16 2 -22 5 -12 2 9 2 23 0 30 -3 6 -5 -1 -5 -18z"/>
<path d="M2248 2083 c11 -16 30 -37 43 -48 12 -11 5 1 -16 28 -43 52 -57 63
-27 20z"/>
<path d="M2932 2040 c-23 -17 -46 -30 -50 -30 -4 0 -23 -14 -42 -31 -25 -22
-28 -27 -10 -17 14 7 29 19 33 26 4 6 12 12 17 12 10 0 100 59 100 66 0 6 -2
5 -48 -26z"/>
<path d="M2340 1983 c0 -5 12 -20 28 -34 l27 -24 -25 30 c-14 17 -26 32 -27
34 -2 2 -3 0 -3 -6z"/>
<path d="M2709 1883 c-45 -48 -119 -144 -133 -173 -4 -8 0 -6 8 5 9 11 22 27
29 35 7 8 23 31 36 50 13 19 45 56 70 83 25 26 43 47 40 47 -3 0 -25 -21 -50
-47z"/>
<path d="M2390 1916 c0 -2 8 -10 18 -17 15 -13 16 -12 3 4 -13 16 -21 21 -21
13z"/>
<path d="M2355 1856 c10 -14 19 -26 22 -26 7 0 -17 39 -28 46 -6 3 -3 -5 6
-20z"/>
<path d="M2380 1819 c0 -4 7 -22 15 -40 8 -19 14 -27 14 -19 0 14 -28 72 -29
59z"/>
<path d="M2513 1665 c-3 -9 -3 -18 -1 -21 3 -3 8 4 11 16 6 23 -1 27 -10 5z"/>
<path d="M2533 1653 c-3 -10 -8 -22 -11 -27 -3 -5 0 -6 5 -3 11 7 25 47 17 47
-3 0 -7 -8 -11 -17z"/>
<path d="M2513 1595 c-3 -9 -3 -18 -1 -21 3 -3 8 4 11 16 6 23 -1 27 -10 5z"/>
<path d="M2491 1584 c0 -11 3 -14 6 -6 3 7 2 16 -1 19 -3 4 -6 -2 -5 -13z"/>
<path d="M2465 1458 c-4 -36 -5 -72 -2 -80 2 -7 8 17 12 54 4 36 5 72 2 80 -2
7 -8 -17 -12 -54z"/>
<path d="M2488 1465 c-2 -25 0 -45 4 -45 5 0 8 20 8 45 0 25 -2 45 -4 45 -2 0
-6 -20 -8 -45z"/>
<path d="M2452 1340 c0 -14 2 -19 5 -12 2 6 2 18 0 25 -3 6 -5 1 -5 -13z"/>
<path d="M2466 1294 c-4 -20 -5 -38 -3 -40 3 -3 8 11 11 32 4 20 5 38 3 40 -3
3 -8 -11 -11 -32z"/>
<path d="M2442 1285 c0 -16 2 -22 5 -12 2 9 2 23 0 30 -3 6 -5 -1 -5 -18z"/>
<path d="M2432 1220 c0 -14 2 -19 5 -12 2 6 2 18 0 25 -3 6 -5 1 -5 -13z"/>
<path d="M2451 1204 c0 -11 3 -14 6 -6 3 7 2 16 -1 19 -3 4 -6 -2 -5 -13z"/>
<path d="M2424 1176 c-3 -8 -4 -25 -2 -38 3 -17 5 -13 9 15 5 38 2 47 -7 23z"/>
<path d="M2442 1140 c0 -19 2 -27 5 -17 2 9 2 25 0 35 -3 9 -5 1 -5 -18z"/>
<path d="M2413 1070 c0 -25 2 -35 4 -22 2 12 2 32 0 45 -2 12 -4 2 -4 -23z"/>
<path d="M2432 1055 c0 -16 2 -22 5 -12 2 9 2 23 0 30 -3 6 -5 -1 -5 -18z"/>
<path d="M2412 970 c0 -19 2 -27 5 -17 2 9 2 25 0 35 -3 9 -5 1 -5 -18z"/>
<path d="M2432 870 c0 -14 2 -19 5 -12 2 6 2 18 0 25 -3 6 -5 1 -5 -13z"/>
<path d="M2412 860 c0 -14 2 -19 5 -12 2 6 2 18 0 25 -3 6 -5 1 -5 -13z"/>
<path d="M2424 797 c-3 -8 -4 -30 -1 -49 3 -30 4 -28 7 12 l3 45 7 -40 7 -40
2 37 c1 38 -15 61 -25 35z"/>
<path d="M2442 650 c0 -14 2 -19 5 -12 2 6 2 18 0 25 -3 6 -5 1 -5 -13z"/>
<path d="M2461 650 c0 -14 7 -41 14 -60 l14 -35 -6 40 c-3 22 -9 49 -14 60 -7
18 -8 17 -8 -5z"/>
<path d="M2422 630 c0 -19 2 -27 5 -17 2 9 2 25 0 35 -3 9 -5 1 -5 -18z"/>
<path d="M2462 534 c-1 -28 -9 -68 -17 -88 -8 -20 -13 -36 -10 -36 15 0 35 80
32 125 l-3 50 -2 -51z"/>
<path d="M2430 546 c0 -14 4 -27 8 -30 5 -3 6 8 4 25 -5 35 -12 38 -12 5z"/>
<path d="M2432 480 c0 -14 2 -19 5 -12 2 6 2 18 0 25 -3 6 -5 1 -5 -13z"/>
<path d="M2469 435 c-9 -25 -13 -42 -8 -40 9 6 33 75 27 80 -2 2 -11 -16 -19
-40z"/>
<path d="M2416 435 c-9 -26 -7 -32 5 -12 6 10 9 21 6 23 -2 3 -7 -2 -11 -11z"/>
<path d="M2417 393 c-4 -3 -7 -11 -7 -17 0 -6 5 -5 12 2 6 6 9 14 7 17 -3 3
-9 2 -12 -2z"/>
<path d="M2430 365 c-8 -9 -8 -15 -2 -15 12 0 26 19 19 26 -2 2 -10 -2 -17
-11z"/>
<path d="M2193 193 c9 -2 23 -2 30 0 6 3 -1 5 -18 5 -16 0 -22 -2 -12 -5z"/>
<path d="M3080 4038 c0 -6 -12 -27 -27 -46 -19 -26 -22 -34 -10 -29 27 10 20
-1 -10 -17 -25 -14 -26 -15 -7 -16 13 0 32 14 48 34 30 40 35 60 6 25 -25 -31
-26 -19 -1 22 12 20 21 26 24 17 4 -9 6 -7 6 5 1 9 -6 17 -14 17 -8 0 -15 -5
-15 -12z"/>
<path d="M1066 4035 c10 -8 15 -15 10 -15 -5 0 -1 -9 8 -19 10 -11 24 -37 32
-58 8 -25 13 -31 14 -17 0 12 -11 38 -25 58 -29 43 -16 49 15 6 12 -17 22 -46
23 -65 1 -35 17 -39 17 -5 0 35 -34 90 -67 110 -40 23 -55 26 -27 5z"/>
<path d="M3269 3938 c-1 -31 -1 -32 -9 -8 -7 23 -8 23 -9 4 -1 -12 -17 -36
-36 -53 -20 -17 -32 -31 -28 -31 4 0 22 14 40 32 18 18 33 27 33 21 0 -6 -16
-25 -35 -42 -39 -34 -39 -40 1 -14 40 26 83 123 54 123 -5 0 -10 -15 -11 -32z"/>
<path d="M3147 3829 c7 -7 15 -10 18 -7 3 3 -2 9 -12 12 -14 6 -15 5 -6 -5z"/>
<path d="M2026 3885 c-9 -37 -25 -57 -39 -48 -6 3 -7 1 -3 -5 10 -16 -28 -34
-42 -20 -9 9 -12 9 -12 1 0 -42 75 -7 96 44 8 19 13 40 11 46 -2 7 -7 -2 -11
-18z"/>
<path d="M2001 3874 c0 -11 3 -14 6 -6 3 7 2 16 -1 19 -3 4 -6 -2 -5 -13z"/>
<path d="M3259 3563 c-13 -17 -13 -17 6 -3 11 8 22 16 24 17 2 2 0 3 -6 3 -6
0 -17 -8 -24 -17z"/>
<path d="M3158 3553 c12 -2 30 -2 40 0 9 3 -1 5 -23 4 -22 0 -30 -2 -17 -4z"/>
<path d="M1108 1883 c17 -2 32 -8 32 -13 0 -4 8 -6 18 -3 10 2 24 -2 31 -10
10 -13 8 -19 -10 -36 -13 -12 -26 -21 -29 -21 -4 0 -5 -11 -2 -25 3 -18 0 -25
-11 -25 -21 0 -33 40 -16 51 7 4 10 11 6 15 -4 4 -2 13 4 20 8 9 6 11 -8 8
-10 -3 -28 4 -39 15 -27 25 -44 11 -44 -38 0 -36 49 -133 50 -98 0 9 7 17 15
17 8 0 15 -8 15 -17 1 -20 30 -64 30 -46 0 7 -4 15 -10 18 -16 10 -12 45 5 45
9 0 15 9 15 24 0 26 24 51 40 41 5 -3 10 -20 10 -36 0 -21 -6 -32 -22 -39 -13
-5 -18 -9 -12 -9 7 -1 25 6 40 14 16 8 23 15 17 15 -7 0 -13 11 -13 24 0 14
-4 28 -10 31 -5 3 -10 13 -10 21 0 26 35 -2 69 -54 36 -57 38 -66 11 -59 -16
4 -20 0 -20 -18 0 -14 -7 -25 -17 -28 -16 -4 -16 -5 0 -6 11 -1 21 7 24 19 3
11 14 20 24 20 15 0 19 -7 19 -36 0 -32 -2 -35 -15 -24 -14 11 -14 10 -6 -12
5 -14 9 -28 8 -30 -1 -2 6 6 15 17 26 30 22 63 -20 139 -47 87 -106 131 -173
133 -31 0 -35 -1 -11 -4z m-8 -75 c0 -14 3 -33 6 -42 3 -9 1 -16 -6 -16 -6 0
-8 6 -4 13 5 9 4 9 -6 0 -11 -10 -16 -9 -26 5 -14 17 -19 74 -8 85 13 13 44
-19 44 -45z"/>
<path d="M1125 1659 c48 -60 104 -93 136 -80 22 9 22 10 -7 9 -37 -2 -68 16
-125 74 l-41 43 37 -46z"/>
<path d="M1168 1683 c6 -2 18 -2 25 0 6 3 1 5 -13 5 -14 0 -19 -2 -12 -5z"/>
<path d="M1207 1631 c-4 -17 -3 -21 5 -13 5 5 8 16 6 23 -3 8 -7 3 -11 -10z"/>
<path d="M1085 1395 c-15 -14 -25 -36 -25 -52 0 -22 2 -25 10 -13 13 20 42 2
51 -31 5 -16 7 -18 8 -6 1 20 5 21 32 6 14 -7 18 -16 14 -30 -5 -14 -2 -17 8
-13 8 3 21 -6 31 -21 18 -28 15 -55 -6 -55 -17 0 -77 49 -60 50 6 0 12 4 12
10 0 5 -7 7 -15 4 -9 -4 -25 4 -40 20 -14 15 -25 23 -25 18 0 -17 75 -88 113
-106 21 -9 45 -15 55 -13 16 4 16 5 0 6 -25 1 -23 21 2 21 11 0 20 4 20 10 0
5 -7 7 -15 4 -12 -5 -15 4 -15 47 0 29 3 49 7 46 7 -7 32 22 32 38 0 6 -6 1
-14 -9 -14 -19 -16 -19 -28 -3 -10 15 -12 11 -9 -28 2 -25 0 -45 -5 -45 -15 0
-33 23 -33 42 0 10 -4 17 -8 16 -5 -2 -31 10 -60 25 -36 20 -49 32 -45 43 3 8
12 13 20 10 8 -3 21 -6 29 -6 8 0 14 -10 14 -22 0 -20 3 -19 21 11 18 29 24
33 52 28 l32 -6 -30 14 c-49 23 -102 19 -130 -10z m85 6 c0 -5 -5 -11 -12 -13
-19 -7 -58 3 -52 13 7 12 64 12 64 0z"/>
<path d="M1269 1371 c10 -10 28 -22 40 -26 23 -7 35 -36 26 -65 -4 -14 -15
-20 -36 -20 -16 0 -29 5 -29 12 0 6 -3 8 -7 4 -5 -4 0 -14 10 -21 10 -7 18
-22 17 -32 -3 -28 11 -63 26 -63 7 0 26 11 41 25 21 18 24 24 12 25 -15 0 -29
27 -29 58 0 25 19 11 25 -19 4 -17 9 -28 12 -25 3 3 -3 28 -13 56 -13 37 -30
60 -58 81 -45 33 -66 39 -37 10z m71 -147 c14 -35 13 -41 -7 -48 -20 -8 -33
10 -33 47 0 35 27 36 40 1z"/>
<path d="M1202 1360 c-7 -11 -12 -25 -12 -32 0 -7 7 0 15 16 18 33 15 45 -3
16z"/>
</g>
</svg>
